<svg width="23" height="23" fill="none" xmlns="http://www.w3.org/2000/svg"><path d="M15.22 0h-8.3A6.92 6.92 0 000 6.919v8.302a6.92 6.92 0 006.919 6.919h8.302a6.92 6.92 0 006.919-6.92v-8.3A6.92 6.92 0 0015.22 0zm4.844 15.22a4.848 4.848 0 01-4.843 4.844H6.919a4.848 4.848 0 01-4.843-4.843V6.919a4.848 4.848 0 014.843-4.843h8.302a4.848 4.848 0 014.843 4.843v8.302z" fill="#DADADA"/><path d="M11.07 5.535a5.535 5.535 0 100 11.07 5.535 5.535 0 000-11.07zm0 8.994a3.464 3.464 0 01-3.46-3.46 3.463 3.463 0 013.46-3.459 3.463 3.463 0 013.46 3.46 3.464 3.464 0 01-3.46 3.459zm5.95-8.672a.738.738 0 100-1.475.738.738 0 000 1.475z" fill="#DADADA"/></svg>