<svg width="23" height="23" viewBox="0 0 23 23" fill="none" xmlns="http://www.w3.org/2000/svg">
<path d="M15.2209 0H6.91861C3.09815 0 0 3.09815 0 6.91861V15.2209C0 19.0414 3.09815 22.1395 6.91861 22.1395H15.2209C19.0414 22.1395 22.1395 19.0414 22.1395 15.2209V6.91861C22.1395 3.09815 19.0414 0 15.2209 0ZM20.064 15.2209C20.064 17.8915 17.8915 20.064 15.2209 20.064H6.91861C4.24802 20.064 2.07558 17.8915 2.07558 15.2209V6.91861C2.07558 4.24802 4.24802 2.07558 6.91861 2.07558H15.2209C17.8915 2.07558 20.064 4.24802 20.064 6.91861V15.2209Z" fill="#DADADA"/>
<path d="M11.0698 5.53467C8.01313 5.53467 5.53488 8.01291 5.53488 11.0696C5.53488 14.1262 8.01313 16.6044 11.0698 16.6044C14.1264 16.6044 16.6047 14.1262 16.6047 11.0696C16.6047 8.01291 14.1264 5.53467 11.0698 5.53467ZM11.0698 14.5289C9.163 14.5289 7.61046 12.9763 7.61046 11.0696C7.61046 9.1614 9.163 7.61025 11.0698 7.61025C12.9765 7.61025 14.5291 9.1614 14.5291 11.0696C14.5291 12.9763 12.9765 14.5289 11.0698 14.5289Z" fill="#DADADA"/>
<path d="M17.0197 5.85713C17.427 5.85713 17.7572 5.52693 17.7572 5.1196C17.7572 4.71228 17.427 4.38208 17.0197 4.38208C16.6124 4.38208 16.2822 4.71228 16.2822 5.1196C16.2822 5.52693 16.6124 5.85713 17.0197 5.85713Z" fill="#DADADA"/>
</svg>
