<svg width="101" height="71" fill="none" xmlns="http://www.w3.org/2000/svg"><path d="M78.275 71c12.3 0 22.304-10.005 22.304-22.305 0-11.865-9.311-21.597-21.01-22.27-.203-2.187-.051-8.14 5.654-16.421A1.57 1.57 0 0085.04 8c-2.335-2.335-3.777-3.805-4.787-4.833-1.322-1.345-1.925-1.959-2.807-2.76a1.572 1.572 0 00-2.087-.023c-9.941 8.65-20.984 26.522-19.386 48.424.936 12.858 10.315 22.19 22.302 22.19zm-1.9-67.281c.428.422.916.919 1.636 1.651.874.892 2.075 2.113 3.895 3.94-6.924 10.668-5.616 18.266-5.043 19.356.271.517.829.866 1.412.866 10.565 0 19.161 8.596 19.161 19.163 0 10.565-8.596 19.162-19.161 19.162-10.293 0-18.353-8.107-19.168-19.276C57.31 23.948 71.95 7.956 76.375 3.72zM.155 48.809v.001C1.095 61.667 10.475 71 22.458 71c12.3 0 22.306-10.005 22.306-22.305 0-11.865-9.313-21.597-21.014-22.27-.202-2.185-.049-8.135 5.657-16.421A1.57 1.57 0 0029.226 8C26.9 5.676 25.46 4.208 24.45 3.18c-1.327-1.353-1.934-1.97-2.82-2.774a1.575 1.575 0 00-2.088-.02C9.602 9.037-1.44 26.909.155 48.809zm20.403-45.09c.431.425.924.925 1.65 1.665.875.89 2.07 2.109 3.883 3.926-6.923 10.67-5.617 18.267-5.046 19.356.271.516.83.866 1.413.866 10.567 0 19.163 8.596 19.163 19.163 0 10.566-8.596 19.162-19.163 19.162-10.29 0-18.353-8.107-19.17-19.277v.002C1.496 23.952 16.136 7.955 20.559 3.719z" fill="#AD916A"/></svg>