<svg width="101" height="71" viewBox="0 0 101 71" fill="none" xmlns="http://www.w3.org/2000/svg">
<path d="M78.2747 70.9998C90.5742 70.9998 100.579 60.9946 100.579 48.6949C100.579 36.8297 91.2679 27.0978 79.5684 26.4255C79.3659 24.2385 79.5178 18.2851 85.2226 10.0035C85.6538 9.3788 85.5756 8.53627 85.04 8.00066C82.7055 5.66621 81.2628 4.19597 80.253 3.16766C78.9315 1.82316 78.3283 1.2093 77.4458 0.408096C77.1466 0.13652 76.7691 -4.57764e-05 76.3899 -4.57764e-05C76.0216 -4.57764e-05 75.6548 0.128815 75.3586 0.385147C65.4179 9.03508 54.3752 26.9075 55.9729 48.8086C56.9091 61.6668 66.2881 70.9998 78.2747 70.9998ZM76.3746 3.71867C76.8027 4.14064 77.2909 4.63791 78.0107 5.37012C78.8854 6.26169 80.0857 7.48345 81.9059 9.30981C74.9825 19.978 76.2902 27.5765 76.8626 28.6663C77.1343 29.1835 77.6915 29.5319 78.2747 29.5319C88.8399 29.5319 97.4361 38.1281 97.4361 48.6949C97.4361 59.2604 88.8399 67.8566 78.2747 67.8566C67.9824 67.8566 59.9218 59.7499 59.1069 48.5815C57.3112 23.9483 71.9514 7.95461 76.3746 3.71867Z" fill="#AD916A"/>
<path d="M0.154827 48.8088V48.8104C1.09417 61.667 10.4746 71 22.4581 71C34.7577 71 44.7644 60.9949 44.7644 48.6952C44.7644 36.8299 35.4514 27.0981 23.7504 26.4257C23.5478 24.2403 23.7014 18.29 29.4075 10.0038C29.8388 9.37904 29.7605 8.53651 29.2249 8.00091C26.8997 5.67572 25.4601 4.20847 24.4502 3.18175C23.1227 1.82812 22.5164 1.21112 21.6294 0.406921C21.3301 0.136765 20.9511 0.000198364 20.5734 0.000198364C20.205 0.000198364 19.8382 0.129059 19.5421 0.386955C9.6014 9.0369 -1.44129 26.9092 0.154827 48.8088ZM20.5582 3.71892C20.9894 4.14404 21.4819 4.64428 22.208 5.38403C23.0828 6.27435 24.2783 7.49281 26.091 9.31005C19.1676 19.9798 20.4736 27.5768 21.0446 28.6665C21.3163 29.1822 21.8748 29.5322 22.4581 29.5322C33.025 29.5322 41.6212 38.1284 41.6212 48.6952C41.6212 59.2606 33.025 67.8568 22.4581 67.8568C12.1675 67.8568 4.10536 59.7502 3.28891 48.5801V48.5817C1.49478 23.9517 16.1349 7.95485 20.5582 3.71892Z" fill="#AD916A"/>
</svg>
